<svg id="Layer_1" data-name="Layer 1" xmlns="http://www.w3.org/2000/svg" viewBox="0 0 32 32"><defs><style>.cls-1{fill:#0080A6;}.cls-2{fill:none;}</style></defs><path class="cls-1" d="M16,28H8V4h8v6a2,2,0,0,0,2,2h6v3h2V10a.89.89,0,0,0-.3-.7l-7-7A.89.89,0,0,0,18,2H8A2,2,0,0,0,6,4V28a2,2,0,0,0,2,2h8ZM18,4.4,23.6,10H18Z"/><rect id="_Transparent_Rectangle_" data-name=" Transparent Rectangle " class="cls-2" width="32" height="32"/><path class="cls-1" d="M25.87,25.59l1.75,1-.25.44a5.12,5.12,0,0,1-4.87,3c-3.24,0-5.5-2.67-5.5-6.5,0-4.07,2.06-6.5,5.5-6.5a5.12,5.12,0,0,1,4.87,3l.25.44-1.75,1L25.63,21a3.12,3.12,0,0,0-3.13-2,3.05,3.05,0,0,0-3.26,2.5H24v2H19c0,.17,0,.33,0,.5h5v2H19.5a3.2,3.2,0,0,0,3,2,3.12,3.12,0,0,0,3.13-2Z"/></svg>