<svg id="Layer_1" data-name="Layer 1" xmlns="http://www.w3.org/2000/svg" viewBox="0 0 32 32"><defs><style>..cls-1{fill:#0080A6;}.cls-2{fill:none;}</style></defs><rect id="_Transparent_Rectangle_" data-name=" Transparent Rectangle " class="cls-1" width="32" height="32"/><path d="M18,27H4a2,2,0,0,1-2-2V7A2,2,0,0,1,4,5H24a2,2,0,0,1,2,2v7H24V7H4V25H18Z"/><polygon class="cls-2" points="30 21 26 21 26 17 24 17 24 21 20 21 20 23 24 23 24 27 26 27 26 23 30 23 30 21"/><rect class="cls-2" x="6" y="9" width="12.02" height="2"/><rect class="cls-2" x="6" y="13" width="9" height="2"/></svg>